Coordinates
version=1
nRows=17
nColumns=24
inDegrees=yes

Units are S.I. units (second, meters, Newtons, ...)
Angles are in degrees.

endheader
time	pelvis_tilt	pelvis_list	pelvis_rotation	pelvis_tx	pelvis_ty	pelvis_tz	hip_flexion_r	hip_adduction_r	hip_rotation_r	knee_angle_r	ankle_angle_r	subtalar_angle_r	mtp_angle_r	hip_flexion_l	hip_adduction_l	hip_rotation_l	knee_angle_l	ankle_angle_l	subtalar_angle_l	mtp_angle_l	lumbar_extension	lumbar_bending	lumbar_rotation
      1.05700000	     -4.54069839	     -0.45148766	      3.63851333	      0.50785973	      0.99865798	      0.34263417	     14.15042072	      3.96051200	      2.47780787	    -20.14871630	     13.78179318	     -7.50024467	     -3.63425941	     22.71760978	     -0.54178937	      1.01201549	    -71.63758189	      0.93293776	     -3.40277697	      2.50814659	     -6.53328039	      8.59229738	     -1.44537145
      1.06116667	     -4.52154065	     -0.29192394	      3.46726679	      0.51242001	      0.99945059	      0.34299195	     13.63874764	      3.85628658	      2.68243993	    -19.72993735	     13.78091187	     -7.49154391	     -3.62806111	     23.26282928	     -0.48296479	      0.80879198	    -71.24421614	      1.55031595	     -3.16141011	      2.44601815	     -6.62855214	      8.35105920	     -1.19517409
      1.06533333	     -4.50074985	     -0.16120811	      3.30692754	      0.51703776	      1.00022141	      0.34333365	     13.10549011	      3.77802808	      2.87917704	    -19.27009812	     13.79367536	     -7.52701925	     -3.62042003	     23.79257262	     -0.46261921	      0.61391091	    -70.80535044	      2.12471355	     -2.90580384	      2.36052318	     -6.68734079	      8.13888656	     -0.86612802
      1.06950000	     -4.47554797	      0.01664098	      3.13131287	      0.52160761	      1.00096466	      0.34363919	     12.59088276	      3.64239334	      3.07911631	    -18.85882389	     13.79039431	     -7.49434011	     -3.61480974	     24.29585246	     -0.38223892	      0.41026024	    -70.30679460	      2.65961055	     -2.74795773	      2.30700413	     -6.78333031	      7.89498457	     -0.67253480
      1.07366667	     -4.42797446	      0.15030562	      2.97145697	      0.52622828	      1.00170783	      0.34395481	     12.02474588	      3.55404675	      3.27907122	    -18.38799858	     13.82426333	     -7.52355949	     -3.60544911	     24.76574357	     -0.35929604	      0.22541673	    -69.77141749	      3.16026170	     -2.52544390	      2.21171148	     -6.87551616	      7.67179282	     -0.31130426
      1.07783333	     -4.39824824	      0.28967832	      2.79948619	      0.53083149	      1.00238014	      0.34425723	     11.48981898	      3.45395846	      3.48469468	    -17.93774464	     13.82537889	     -7.53342553	     -3.59542141	     25.23953265	     -0.32771639	      0.03763905	    -69.19218735	      3.62259824	     -2.37987801	      2.11035928	     -6.95556264	      7.45856396	     -0.03320338
      1.08200000	     -4.36353758	      0.44048440	      2.62635701	      0.53543473	      1.00301980	      0.34452630	     10.95540571	      3.33384834	      3.67800427	    -17.50143541	     13.85005688	     -7.51449347	     -3.58563447	     25.68994982	     -0.27851867	     -0.14534469	    -68.56388062	      4.03917329	     -2.27071875	      2.01979755	     -7.03918173	      7.24162253	      0.21067615
      1.08616667	     -4.32333483	      0.58874019	      2.45337366	      0.54005297	      1.00364452	      0.34478664	     10.41080622	      3.21151686	      3.86518543	    -17.05481306	     13.86854267	     -7.48730973	     -3.57525737	     26.11667383	     -0.23061543	     -0.31913255	    -67.88722470	      4.41226439	     -2.19675749	      1.92417018	     -7.12557164	      7.02267512	      0.47015926
      1.09033333	     -4.27762724	      0.74736765	      2.27480923	      0.54467438	      1.00423583	      0.34502518	      9.86584096	      3.07155913	      4.04327538	    -16.61980288	     13.90451119	     -7.43876716	     -3.56379176	     26.51835678	     -0.16796645	     -0.49099382	    -67.16275841	      4.73904255	     -2.16215586	      1.83042558	     -7.21731892	      6.79804840	      0.72171665
      1.09450000	     -4.23806352	      0.88644735	      2.09701453	      0.54929752	      1.00477264	      0.34525515	      9.32435220	      2.94770947	      4.22282162	    -16.17323105	     13.93405917	     -7.38312924	     -3.55118001	     26.91507607	     -0.12217104	     -0.64323635	    -66.40413559	      5.03004934	     -2.15948909	      1.72739103	     -7.30061968	      6.59569282	      0.98554025
      1.09866667	     -4.19215651	      1.02917424	      1.91558843	      0.55393289	      1.00529553	      0.34546302	      8.77577709	      2.81394061	      4.39535866	    -15.72664704	     13.96178063	     -7.31555306	     -3.53712871	     27.28424115	     -0.06709333	     -0.78702237	    -65.59710492	      5.27918189	     -2.19001121	      1.61719570	     -7.39303718	      6.39456857	      1.23842500
      1.10283333	     -4.13602663	      1.18172497	      1.73428913	      0.55857150	      1.00578340	      0.34565738	      8.22148066	      2.66254179	      4.54494393	    -15.29080935	     14.01447554	     -7.22433272	     -3.52336827	     27.62442513	      0.00125543	     -0.92351226	    -64.74530683	      5.48066008	     -2.25154536	      1.52082887	     -7.48748960	      6.18427110	      1.46523490
      1.10700000	     -4.11248021	      1.32836054	      1.54152132	      0.56321434	      1.00618669	      0.34584527	      7.71131566	      2.51207506	      4.69940688	    -14.87024930	     14.03178758	     -7.10651690	     -3.51470407	     27.98219942	      0.06590424	     -1.05291236	    -63.85553885	      5.66492699	     -2.32333275	      1.46321758	     -7.53537530	      6.00272132	      1.63051434
      1.11116667	     -4.03814182	      1.44656808	      1.36130455	      0.56787843	      1.00662219	      0.34601186	      7.12501126	      2.38737833	      4.84142902	    -14.40380002	     14.09392059	     -6.99841287	     -3.48890263	     28.27233469	      0.10804667	     -1.15014377	    -62.93435535	      5.79757205	     -2.45003892	      1.29807753	     -7.66230702	      5.80902916	      2.00255278
      1.11533333	     -3.98757182	      1.59953201	      1.18209762	      0.57253859	      1.00699524	      0.34616233	      6.58067256	      2.21850148	      4.96496638	    -13.97416941	     14.17000205	     -6.88774538	     -3.47460519	     28.56343719	      0.19621605	     -1.23844932	    -61.95466622	      5.87443833	     -2.59021358	      1.21308702	     -7.74466659	      5.60482445	      2.17667338
      1.11950000	     -3.94903742	      1.73346799	      0.98823691	      0.57721131	      1.00729824	      0.34631457	      6.05151068	      2.06545306	      5.09240836	    -13.54413267	     14.18942488	     -6.73270228	     -3.46420568	     28.85088426	      0.26118841	     -1.32072550	    -60.94684769	      5.94943067	     -2.72720399	      1.15303108	     -7.81112545	      5.42906060	      2.35483964
      1.12366667	     -3.88410871	      1.86008473	      0.80414114	      0.58189154	      1.00760259	      0.34644608	      5.48943054	      1.91511336	      5.20460427	    -13.10557961	     14.25518272	     -6.58550933	     -3.45220000	     29.09238590	      0.32977138	     -1.37251684	    -59.89808212	      5.97557655	     -2.90799162	      1.08901260	     -7.90704302	      5.25683132	      2.58369886
